<?xml version="1.0" standalone="no"?>
<!DOCTYPE svg PUBLIC "-//W3C//DTD SVG 20010904//EN"
 "http://www.w3.org/TR/2001/REC-SVG-20010904/DTD/svg10.dtd">
<svg version="1.0" xmlns="http://www.w3.org/2000/svg"
 width="418.000000pt" height="160.000000pt" viewBox="0 0 418.000000 160.000000"
 preserveAspectRatio="xMidYMid meet">
<metadata>
Created by potrace 1.16, written by Peter Selinger 2001-2019
</metadata>
<g transform="translate(0.000000,160.000000) scale(0.100000,-0.100000)"
fill="#000000" stroke="none">
<path d="M985 1544 l-130 -55 -91 15 c-142 25 -131 28 -220 -80 -44 -52 -81
-100 -83 -107 -2 -7 -30 -40 -62 -75 -54 -57 -71 -93 -51 -106 4 -2 22 -25 40
-50 l34 -46 -57 25 c-32 14 -63 25 -69 25 -6 0 -33 -30 -61 -67 -27 -36 -57
-73 -65 -81 -8 -8 -49 -57 -92 -110 -66 -80 -78 -100 -78 -131 1 -66 46 -416
56 -433 8 -15 25 -9 150 55 238 122 404 212 404 220 0 15 -55 6 -94 -17 -58
-33 -415 -226 -419 -226 -2 0 6 71 19 158 36 245 25 218 92 225 31 4 136 16
232 27 96 11 178 20 182 20 6 0 78 -93 78 -102 0 -2 -21 -15 -47 -28 -27 -14
-50 -26 -52 -28 -3 -1 1 -8 7 -14 9 -9 26 -5 72 17 33 16 60 35 60 42 0 8 -16
37 -35 66 -35 51 -35 52 -13 55 13 1 42 5 66 8 l42 5 0 45 c0 24 2 44 4 44 2
0 23 -9 47 -20 24 -11 50 -20 57 -20 14 0 65 108 56 121 -10 17 -21 9 -39 -31
-10 -23 -22 -43 -26 -45 -13 -9 -98 35 -103 53 -5 17 -16 155 -22 272 -2 36
-7 103 -11 149 l-9 84 46 19 c62 28 103 31 190 16 l75 -14 11 -94 11 -95 -64
-134 c-35 -74 -63 -142 -63 -152 0 -43 25 -12 73 91 28 61 54 110 58 110 3 0
9 -30 13 -67 12 -126 19 -163 27 -157 4 2 5 -18 2 -45 -3 -27 -3 -61 1 -76 7
-26 9 -27 64 -23 l57 3 -17 -35 c-29 -55 -24 -66 42 -96 33 -15 60 -29 60 -33
-1 -3 -23 -22 -50 -41 -28 -19 -50 -40 -50 -45 0 -21 76 -85 108 -91 34 -7 46
12 15 23 -21 7 -73 53 -73 64 0 4 21 23 46 41 l47 35 137 -64 c102 -46 150
-63 181 -63 48 0 43 9 -16 30 -54 18 -269 119 -264 124 2 2 51 39 109 82 107
80 136 91 236 93 30 1 33 -3 59 -66 15 -38 33 -75 40 -83 7 -8 16 -31 20 -50
4 -19 20 -68 36 -108 l29 -73 -75 -142 c-41 -78 -75 -140 -75 -137 0 3 9 57
20 120 26 153 26 164 -6 179 -31 14 -114 27 -114 17 0 -3 25 -17 56 -31 49
-22 55 -28 51 -47 -3 -13 -15 -86 -28 -163 -12 -77 -25 -144 -29 -148 -4 -5
-88 73 -186 172 -103 104 -187 181 -197 181 -10 0 -17 -4 -15 -10 5 -14 283
-293 352 -353 52 -46 95 -70 80 -46 -3 5 40 95 95 200 56 104 101 198 101 208
0 10 -17 60 -38 112 -21 52 -42 107 -46 122 -3 15 -10 25 -15 23 -5 -3 -11 9
-14 27 -3 17 -15 53 -27 80 l-21 47 -62 0 -62 0 53 37 c34 24 52 44 52 57 -1
41 -58 146 -81 146 -4 0 5 -32 20 -72 l28 -72 -65 -49 c-73 -55 -98 -61 -290
-72 l-112 -7 9 25 c33 86 95 225 108 239 8 9 13 22 12 30 -1 7 6 31 15 53 10
22 26 60 37 84 25 58 24 76 -8 99 l-26 19 81 -12 c45 -6 84 -13 86 -16 2 -2
20 -45 39 -96 40 -103 61 -139 89 -154 18 -10 19 -8 13 13 -4 12 -11 25 -16
28 -4 3 -26 55 -50 115 -23 61 -46 115 -50 121 -5 6 -57 17 -116 24 -60 7
-117 18 -128 25 -11 7 -69 53 -130 104 -63 52 -118 91 -130 90 -11 0 -78 -25
-150 -55z m257 -63 c43 -35 78 -66 78 -67 0 -2 -33 -1 -73 2 l-73 7 -31 -69
-31 -69 -7 77 c-4 43 -12 82 -19 86 -6 5 -33 13 -61 16 -106 15 -106 16 6 61
80 32 107 39 119 31 8 -6 50 -40 92 -75z m-494 -7 c51 -8 54 -19 7 -34 -40
-13 -39 -8 -25 -147 14 -146 31 -385 27 -389 -2 -3 -62 20 -133 50 -124 52
-131 57 -181 118 -29 34 -55 71 -59 81 -4 12 33 64 128 178 126 152 135 160
163 155 17 -3 49 -8 73 -12z m553 -97 c73 -11 92 -18 126 -47 l41 -34 -35 -80
c-20 -45 -39 -95 -43 -112 -4 -16 -14 -41 -23 -55 -8 -13 -34 -69 -57 -124
-23 -55 -47 -103 -54 -107 -6 -4 -28 -8 -48 -8 -42 0 -44 4 -52 95 -2 28 -11
109 -20 182 l-16 132 39 86 c22 47 43 85 48 85 4 0 47 -6 94 -13z m-899 -366
c54 -24 65 -35 137 -136 l79 -110 -172 -21 c-95 -12 -205 -25 -244 -29 -52 -5
-75 -12 -81 -24 -4 -9 -16 -76 -26 -148 -10 -73 -21 -133 -24 -133 -4 0 -15
70 -24 155 l-18 156 53 63 c29 34 91 109 137 165 93 113 80 109 183 62z m268
-113 c95 -39 100 -43 100 -83 0 -28 -4 -33 -31 -39 -74 -15 -80 -11 -151 89
l-67 95 37 -16 c20 -8 71 -29 112 -46z m890 -112 c0 -2 -41 -34 -90 -71 l-90
-67 -65 27 -64 28 16 31 c8 17 17 33 20 36 8 9 273 24 273 16z"/>
<path d="M2829 1430 c-52 -27 -86 -72 -98 -128 -17 -82 7 -146 75 -199 31 -23
49 -28 110 -31 61 -4 79 -1 112 18 43 24 76 74 86 133 l7 37 -86 0 c-84 0 -85
0 -85 -25 0 -24 3 -25 55 -25 30 0 55 -4 55 -9 0 -18 -45 -64 -76 -77 -45 -19
-78 -18 -122 5 -47 24 -66 46 -82 95 -25 76 23 153 111 176 45 13 94 1 142
-33 26 -18 30 -18 44 -4 14 14 14 18 2 33 -43 52 -180 71 -250 34z"/>
<path d="M2200 1259 l0 -181 109 4 c106 3 111 4 142 33 92 87 75 248 -31 303
-36 18 -61 22 -132 22 l-88 0 0 -181z m162 131 c20 -6 50 -26 67 -46 26 -29
31 -43 31 -88 0 -90 -54 -136 -160 -136 l-60 0 0 140 0 140 43 0 c23 0 59 -5
79 -10z"/>
<path d="M2590 1260 l0 -180 25 0 25 0 0 180 0 180 -25 0 -25 0 0 -180z"/>
<path d="M3200 1260 l0 -180 25 0 25 0 0 180 0 180 -25 0 -25 0 0 -180z"/>
<path d="M3310 1420 c0 -17 7 -20 40 -20 l40 0 0 -160 0 -160 25 0 25 0 0 160
0 160 40 0 c33 0 40 3 40 20 0 19 -7 20 -105 20 -98 0 -105 -1 -105 -20z"/>
<path d="M3606 1273 c-43 -93 -81 -174 -83 -180 -3 -9 4 -13 21 -13 22 0 30 9
51 55 l24 55 76 0 75 0 27 -55 c21 -43 32 -55 50 -55 13 0 23 2 23 5 0 19
-165 355 -174 355 -6 0 -47 -75 -90 -167z"/>
<path d="M3950 1260 l0 -180 90 0 c83 0 90 1 90 20 0 18 -7 20 -70 20 l-70 0
0 160 c0 153 -1 160 -20 160 -19 0 -20 -7 -20 -180z"/>
<path d="M3260 780 l0 -220 30 0 c20 0 30 5 30 15 0 19 9 19 34 0 30 -23 121
-19 166 6 103 58 109 229 11 296 -50 34 -110 39 -165 15 l-46 -21 0 65 0 64
-30 0 -30 0 0 -220z m236 26 c44 -44 47 -99 8 -145 -50 -60 -134 -47 -169 25
-24 50 -8 107 38 134 48 30 83 26 123 -14z"/>
<path d="M2281 898 c-63 -43 -76 -70 -76 -158 0 -88 13 -115 76 -158 29 -20
44 -23 96 -20 42 3 68 10 82 22 21 19 21 19 21 -2 0 -18 6 -22 30 -22 l30 0 0
180 0 180 -30 0 c-24 0 -30 -4 -30 -22 0 -21 0 -21 -21 -2 -14 12 -40 19 -82
22 -52 3 -67 0 -96 -20z m159 -77 c50 -49 52 -104 5 -159 -29 -35 -69 -45
-110 -27 -43 17 -65 55 -65 110 0 38 5 52 29 76 41 41 101 41 141 0z"/>
<path d="M2660 750 l0 -170 35 0 35 0 0 115 c0 102 2 117 20 135 11 11 27 20
35 20 10 0 15 11 15 35 0 29 -4 35 -22 35 -12 0 -30 -7 -40 -17 -17 -15 -18
-15 -18 0 0 12 -9 17 -30 17 l-30 0 0 -170z"/>
<path d="M2921 898 c-63 -43 -76 -70 -76 -158 0 -88 13 -115 76 -158 29 -20
44 -23 96 -20 42 3 68 10 82 22 21 19 21 19 21 -2 0 -18 6 -22 30 -22 l30 0 0
180 0 180 -30 0 c-24 0 -30 -4 -30 -22 0 -21 0 -21 -21 -2 -14 12 -40 19 -82
22 -52 3 -67 0 -96 -20z m159 -77 c50 -49 52 -104 5 -159 -29 -35 -69 -45
-110 -27 -43 17 -65 55 -65 110 0 38 5 52 29 76 41 41 101 41 141 0z"/>
<path d="M3921 898 c-63 -43 -76 -70 -76 -158 0 -88 13 -115 76 -158 29 -20
44 -23 96 -20 42 3 68 10 82 22 21 19 21 19 21 -2 0 -18 6 -22 30 -22 l30 0 0
180 0 180 -30 0 c-24 0 -30 -4 -30 -22 0 -21 0 -21 -21 -2 -14 12 -40 19 -82
22 -52 3 -67 0 -96 -20z m159 -77 c50 -49 52 -104 5 -159 -29 -35 -69 -45
-110 -27 -43 17 -65 55 -65 110 0 38 5 52 29 76 41 41 101 41 141 0z"/>
<path d="M3680 730 l0 -170 30 0 30 0 0 170 0 170 -30 0 -30 0 0 -170z"/>
<path d="M2870 440 c0 -43 -3 -50 -20 -50 -13 0 -20 -7 -20 -20 0 -13 7 -20
20 -20 19 0 20 -7 20 -115 l0 -115 25 0 25 0 0 115 0 115 25 0 c18 0 25 5 25
20 0 15 -7 20 -25 20 -23 0 -25 3 -25 50 0 47 -2 50 -25 50 -23 0 -25 -3 -25
-50z"/>
<path d="M3950 305 l0 -185 25 0 c23 0 25 3 25 51 l0 51 60 -52 c48 -41 65
-51 89 -48 30 3 30 4 -44 68 l-75 65 73 67 72 67 -34 1 c-26 0 -45 -10 -85
-46 l-51 -47 -3 97 c-3 95 -3 96 -27 96 l-25 0 0 -185z"/>
<path d="M2277 381 c-29 -15 -37 -16 -37 -5 0 8 -10 14 -25 14 l-25 0 0 -135
0 -135 25 0 c25 0 25 1 25 80 0 52 5 91 15 109 26 51 100 58 124 12 6 -11 11
-60 11 -110 0 -84 1 -91 20 -91 19 0 20 7 20 105 0 119 -10 146 -62 164 -41
15 -48 14 -91 -8z"/>
<path d="M2574 386 c-104 -46 -108 -220 -6 -263 54 -23 126 -13 162 22 17 16
30 35 30 42 0 21 -31 28 -42 10 -12 -23 -61 -47 -93 -47 -32 0 -85 50 -85 79
0 20 5 21 115 21 l115 0 0 26 c0 42 -36 90 -80 108 -49 19 -75 20 -116 2z"/>
<path d="M3536 390 c-141 -44 -119 -261 28 -277 82 -10 148 38 161 115 8 49
-17 115 -55 142 -33 23 -94 33 -134 20z m115 -71 c67 -72 4 -185 -90 -164 -72
16 -96 112 -42 166 42 41 92 40 132 -2z"/>
<path d="M3853 385 c-14 -10 -24 -11 -28 -5 -3 5 -15 10 -26 10 -18 0 -19 -8
-19 -135 l0 -135 25 0 c25 0 25 0 25 93 0 104 12 134 58 139 19 2 27 9 27 23
0 25 -33 31 -62 10z"/>
<path d="M2990 383 c0 -23 109 -258 119 -258 7 0 29 37 49 83 19 45 39 79 42
75 4 -5 22 -43 40 -85 19 -43 39 -78 45 -78 8 0 51 90 123 262 2 4 -7 8 -21 8
-21 0 -29 -11 -62 -90 -21 -49 -39 -90 -40 -90 -1 0 -19 41 -41 90 -21 50 -43
89 -49 87 -5 -2 -26 -40 -45 -85 -19 -45 -37 -82 -41 -82 -3 0 -22 37 -40 83
-27 64 -39 83 -57 85 -12 2 -22 -1 -22 -5z"/>
</g>
</svg>
