<svg version="1.1" id="Ebene_1" xmlns="http://www.w3.org/2000/svg" x="0" y="0" viewBox="0 0 283.46 141.73" xml:space="preserve"><style>.st0{fill:#fff}</style><path class="st0" d="M152.1 79.31c-1.26-1.36-1.89-3.04-1.89-5.04 0-1.91.63-3.52 1.89-4.84 1.26-1.32 2.78-1.98 4.56-1.98 1.74 0 3.23.69 4.5 2.08 1.26 1.39 1.89 3.05 1.89 5 0 1.83-.64 3.42-1.91 4.78-1.27 1.36-2.74 2.04-4.41 2.04-1.83 0-3.37-.68-4.63-2.04m.41-14.58c-1.13.5-2.16 1.27-3.11 2.31a9.9 9.9 0 00-2 3.3c-.47 1.25-.7 2.57-.7 3.96 0 2.99.93 5.48 2.81 7.47 1.87 1.99 4.22 2.98 7.06 2.98 1.21 0 2.35-.24 3.42-.73 1.07-.49 2.03-1.2 2.9-2.15v2.43h3.43V64.49h-3.43v2.39c-.89-.97-1.88-1.7-2.96-2.18-1.08-.48-2.27-.72-3.56-.72-1.45.01-2.74.26-3.86.75M178.38 64.78c-.77.42-1.45 1.05-2.04 1.9v-2.23h-3.37V84.3h3.59V73.02c0-1.78.35-3.07 1.04-3.87.69-.8 1.84-1.26 3.45-1.38v-3.63c-1.01.02-1.9.22-2.67.64zM188.76 79.31c-1.26-1.36-1.89-3.04-1.89-5.04 0-1.91.63-3.52 1.89-4.84 1.26-1.32 2.78-1.98 4.57-1.98 1.74 0 3.23.69 4.5 2.08 1.26 1.39 1.89 3.05 1.89 5 0 1.83-.64 3.42-1.91 4.78-1.27 1.36-2.74 2.04-4.41 2.04-1.83 0-3.37-.68-4.64-2.04m.42-14.58c-1.12.5-2.16 1.27-3.11 2.31-.87.95-1.53 2.05-2 3.3s-.7 2.57-.7 3.96c0 2.99.94 5.48 2.81 7.47 1.87 1.99 4.23 2.98 7.06 2.98 1.21 0 2.35-.24 3.41-.73 1.07-.49 2.04-1.2 2.9-2.15v2.43h3.43V64.49h-3.43v2.39c-.89-.97-1.88-1.7-2.96-2.18-1.08-.48-2.27-.72-3.56-.72-1.45.01-2.73.26-3.85.75M213.53 79.57c-1.27-1.3-1.91-2.81-1.91-4.55 0-1.86.63-3.45 1.87-4.76 1.25-1.31 2.74-1.97 4.47-1.97 1.77 0 3.29.63 4.55 1.89 1.27 1.26 1.9 2.8 1.9 4.6 0 1.92-.63 3.52-1.88 4.81-1.25 1.29-2.79 1.93-4.6 1.93-1.66-.01-3.13-.65-4.4-1.95m-5.19-20.2v24.95h3.42v-2.31c.87.9 1.83 1.59 2.9 2.05 1.07.46 2.2.69 3.42.69 2.84 0 5.19-.94 7.07-2.83 1.87-1.89 2.81-4.26 2.81-7.1 0-1.32-.23-2.57-.7-3.76a9.498 9.498 0 00-2.02-3.15c-.95-.99-1.98-1.73-3.11-2.2-1.12-.47-2.41-.71-3.84-.71-1.28 0-2.46.23-3.55.69-1.09.46-2.09 1.15-3 2.07v-8.38h-3.4zM232.56 65.57h3.46v18.68h-3.46zM232.56 59.37h3.46v3.95h-3.46zM246.7 79.31c-1.26-1.36-1.89-3.04-1.89-5.04 0-1.91.63-3.52 1.89-4.84 1.26-1.32 2.78-1.98 4.57-1.98 1.74 0 3.23.69 4.49 2.08 1.26 1.39 1.89 3.05 1.89 5 0 1.83-.64 3.42-1.91 4.78-1.27 1.36-2.74 2.04-4.41 2.04-1.83 0-3.37-.68-4.63-2.04m.41-14.58c-1.13.5-2.16 1.27-3.11 2.31-.87.95-1.54 2.05-2.01 3.3-.47 1.25-.7 2.57-.7 3.96 0 2.99.94 5.48 2.81 7.47 1.87 1.99 4.22 2.98 7.06 2.98 1.21 0 2.35-.24 3.42-.73 1.07-.49 2.04-1.2 2.9-2.15v2.43h3.43V64.49h-3.43v2.39c-.89-.97-1.88-1.7-2.96-2.18-1.09-.48-2.27-.72-3.56-.72-1.45.01-2.73.26-3.85.75M148.3 94.81h1.97v2.75c.79-1.05 1.66-1.84 2.62-2.36.96-.52 2-.78 3.13-.78 1.15 0 2.16.29 3.05.87.89.58 1.54 1.37 1.96 2.35.42.99.63 2.52.63 4.6v7.89h-1.97v-7.31c0-1.77-.07-2.94-.22-3.54-.23-1.01-.67-1.78-1.31-2.29s-1.49-.77-2.54-.77c-1.19 0-2.26.39-3.21 1.18-.94.79-1.57 1.77-1.87 2.93-.19.76-.28 2.15-.28 4.17v5.62h-1.97V94.81zM179.46 105.05l1.66.87c-.55 1.07-1.17 1.93-1.89 2.59-.71.66-1.52 1.16-2.41 1.5-.89.34-1.9.51-3.03.51-2.5 0-4.45-.82-5.86-2.46-1.41-1.64-2.11-3.49-2.11-5.56 0-1.94.6-3.67 1.79-5.2 1.51-1.93 3.54-2.9 6.08-2.9 2.61 0 4.7.99 6.26 2.97 1.11 1.4 1.67 3.15 1.69 5.24h-13.79c.04 1.78.61 3.24 1.71 4.38 1.1 1.14 2.46 1.71 4.08 1.71.78 0 1.54-.14 2.28-.41s1.37-.63 1.88-1.08c.49-.44 1.05-1.16 1.66-2.16zm0-4.13c-.26-1.05-.65-1.89-1.15-2.52s-1.17-1.14-2-1.52-1.7-.58-2.61-.58c-1.5 0-2.8.48-3.88 1.45-.79.7-1.39 1.76-1.79 3.17h11.43zM187.68 89.12h1.97v5.69h3.13v1.7h-3.13v13.62h-1.97V96.51h-2.69v-1.7h2.69v-5.69zM194.34 94.81h2.03l4.7 11.13 4.89-11.13h.36l4.92 11.13 4.79-11.13h2.05l-6.66 15.32h-.37l-4.9-10.97-4.9 10.97h-.37l-6.54-15.32zM228.27 94.42c2.36 0 4.32.85 5.87 2.56 1.41 1.56 2.12 3.4 2.12 5.53 0 2.14-.75 4.01-2.24 5.61-1.49 1.6-3.41 2.4-5.75 2.4-2.35 0-4.27-.8-5.76-2.4-1.49-1.6-2.24-3.47-2.24-5.61 0-2.12.71-3.96 2.12-5.52 1.54-1.71 3.51-2.57 5.88-2.57zm-.01 1.93c-1.64 0-3.05.61-4.23 1.82-1.18 1.21-1.77 2.68-1.77 4.39 0 1.11.27 2.14.81 3.1s1.26 1.7 2.18 2.22c.91.52 1.92.78 3.01.78s2.1-.26 3.01-.78c.91-.52 1.64-1.26 2.18-2.22.54-.96.81-1.99.81-3.1 0-1.72-.59-3.18-1.77-4.39-1.2-1.22-2.6-1.82-4.23-1.82zM239.81 94.81h2.01v2.24c.6-.88 1.24-1.54 1.9-1.98.67-.44 1.36-.65 2.08-.65.54 0 1.13.17 1.75.52l-1.03 1.66c-.41-.18-.76-.27-1.04-.27-.66 0-1.29.27-1.9.81s-1.08 1.38-1.39 2.51c-.24.87-.37 2.64-.37 5.29v5.18h-2.01V94.81z"/><g><path class="st0" d="M249.9 88.9h1.97V101l7.1-6.18h2.9l-8.42 7.31 8.91 8.01h-2.77l-7.72-6.9v6.9h-1.97V88.9z"/></g><g><path class="st0" d="M148.63 54.76V34.04h4.3c3.1 0 5.35.25 6.75.75 2.01.7 3.58 1.92 4.71 3.66 1.13 1.74 1.7 3.81 1.7 6.21 0 2.07-.45 3.9-1.34 5.48s-2.06 2.74-3.49 3.49-3.44 1.13-6.02 1.13h-6.61zm1.98-1.96H153c2.86 0 4.85-.18 5.96-.53 1.56-.51 2.78-1.42 3.68-2.74.89-1.32 1.34-2.93 1.34-4.83 0-2-.48-3.71-1.45-5.12-.97-1.42-2.31-2.39-4.04-2.91-1.29-.39-3.43-.59-6.41-.59h-1.47V52.8z"/></g><g><path class="st0" d="M171.49 34.04h2.07v20.72h-2.07V34.04zM199.99 37.52l-1.61 1.52c-1.15-1.14-2.42-2-3.79-2.58-1.38-.59-2.72-.88-4.02-.88-1.62 0-3.17.4-4.64 1.2s-2.61 1.88-3.42 3.25-1.21 2.81-1.21 4.33c0 1.56.42 3.04 1.25 4.44.84 1.4 1.99 2.51 3.46 3.31 1.47.8 3.09 1.2 4.84 1.2 2.13 0 3.93-.6 5.41-1.8s2.35-2.76 2.62-4.68h-6.6v-2h8.93c-.02 3.2-.97 5.74-2.85 7.63-1.88 1.88-4.4 2.82-7.56 2.82-3.83 0-6.86-1.3-9.1-3.92-1.72-2.01-2.58-4.33-2.58-6.97 0-1.96.49-3.79 1.48-5.48a10.51 10.51 0 014.06-3.96c1.72-.95 3.66-1.43 5.83-1.43 1.75 0 3.41.32 4.96.95 1.56.63 3.07 1.65 4.54 3.05zM206.57 34.04h2.07v20.72h-2.07V34.04zM213.03 36.07v-2.03h11.35v2.03h-4.62v18.69h-2.11V36.07h-4.62zM237.56 34.04l9.66 20.72h-2.24l-3.26-6.82h-8.92l-3.23 6.82h-2.31l9.79-20.72h.51zm-.26 4.4l-3.55 7.5h7.08l-3.53-7.5z"/></g><g><path class="st0" d="M252.25 34.04h2.07v18.72h7.97v2h-10.04V34.04z"/></g><g><path class="st0" d="M122.73 116.93c-.04 0-.08 0-.11-.01a.695.695 0 01-.58-.81l3.73-22.88-33.84-15.69c-.35-.16-.5-.57-.35-.92l14.51-34.49-19.32-15.9-22.35 9.72 2.84 36.81c.03.38-.25.71-.62.76l-37.05 4.32-3.66 24.11c-.06.39-.42.65-.81.59a.704.704 0 01-.59-.81l3.75-24.64c.05-.32.3-.56.62-.6l36.91-4.3-2.82-36.64c-.02-.3.15-.58.42-.7l23.21-10.1c.24-.11.53-.07.73.1l20.06 16.52c.24.2.32.53.2.82L93.15 76.55l33.69 15.63c.29.13.45.44.4.76l-3.81 23.41c-.06.33-.36.58-.7.58z"/><path class="st0" d="M122.76 117a.67.67 0 01-.31-.07.712.712 0 01-.32-.95l11.73-23.59-9.05-22.44-37.18 2.24c-.38.02-.7-.25-.75-.63l-4.22-36.91-24.55-3.87-15.79 19.2 21.3 30.79c.11.17.15.37.11.57a.71.71 0 01-.35.46l-37.85 20.66c-.34.19-.77.06-.96-.28a.708.708 0 01.28-.96l37.16-20.29-21.15-30.58a.691.691 0 01.04-.85l16.38-19.93c.16-.19.41-.29.66-.25l25.48 4.01c.31.05.56.3.59.62l4.2 36.78 37.01-2.23a.7.7 0 01.7.44l9.36 23.21c.08.19.07.4-.02.58l-11.87 23.87c-.12.25-.37.4-.63.4z"/><path class="st0" d="M122.79 117.03c-.19 0-.37-.07-.51-.22L93.13 86.62a.752.752 0 01-.2-.55c.02-.2.12-.39.28-.51l30.13-22.42-8.82-23.25-24.35-3.25-16.1 33.61c-.16.34-.57.49-.91.35L38.57 56.02 22.55 75.44l3.37 26.31c.05.39-.22.74-.61.79a.701.701 0 01-.79-.61l-3.41-26.62a.71.71 0 01.16-.54l16.55-20.06c.2-.24.53-.32.82-.2l34.45 14.52 16.03-33.46c.13-.28.43-.44.73-.4l25.28 3.38c.26.03.48.21.57.45l9.16 24.14c.11.3.01.63-.24.82L94.7 86.22l28.6 29.61c.27.28.26.73-.02 1-.13.14-.31.2-.49.2z"/><path class="st0" d="M122.79 117a.71.71 0 01-.41-.13L89.45 93.46a.699.699 0 01-.27-.76c.08-.29.32-.49.61-.52l37.48-3.76 4.19-24.21-19.47-16.18-30.76 21.36c-.32.22-.75.15-.97-.16L58.01 38.97l-23.35 8.79-3.51 24.12 33.64 16.36c.26.13.42.4.4.68-.02.29-.21.53-.48.63l-39.32 13.04a.706.706 0 01-.44-1.34l37.65-12.5-32.54-15.83a.691.691 0 01-.39-.74l3.64-25.04a.72.72 0 01.45-.56L58 37.45c.3-.11.63-.01.82.24l22.16 30.14 30.63-21.27c.26-.18.61-.17.86.04l20.2 16.79c.19.16.29.42.25.66l-4.35 25.14c-.05.31-.31.55-.63.58L91.8 93.4l31.4 22.31c.32.23.39.67.17.99a.73.73 0 01-.58.3z"/></g></svg>